<svg width="24" height="24" viewBox="0 0 24 24" fill="none" xmlns="http://www.w3.org/2000/svg">
<path fill-rule="evenodd" clip-rule="evenodd" d="M7.69482 5.88889V7.11111H6.09369C5.56789 7.11123 5.06122 7.31186 4.67365 7.67342C4.28609 8.03498 4.04576 8.53122 4.00009 9.06422L3.00794 20.6753C2.98264 20.9706 3.01793 21.268 3.11157 21.5487C3.20521 21.8294 3.35516 22.0872 3.55189 22.3057C3.74863 22.5243 3.98787 22.6989 4.25443 22.8184C4.52099 22.9379 4.80905 22.9998 5.10034 23H19.8985C20.1898 22.9999 20.478 22.9382 20.7447 22.8188C21.0114 22.6993 21.2508 22.5248 21.4477 22.3062C21.6446 22.0876 21.7946 21.8297 21.8883 21.549C21.982 21.2682 22.0174 20.9707 21.9921 20.6753L20.9999 9.06422C20.9542 8.53101 20.7137 8.0346 20.3259 7.67301C19.9381 7.31142 19.4311 7.11092 18.9051 7.11111H17.304V5.88889C17.304 4.59227 16.7978 3.34877 15.8968 2.43192C14.9957 1.51508 13.7737 1 12.4994 1C11.2251 1 10.0031 1.51508 9.10205 2.43192C8.20101 3.34877 7.69482 4.59227 7.69482 5.88889ZM12.4994 2.83333C11.703 2.83333 10.9392 3.15526 10.3761 3.72828C9.81291 4.30131 9.49653 5.07851 9.49653 5.88889V7.11111H15.5023V5.88889C15.5023 5.07851 15.1859 4.30131 14.6227 3.72828C14.0596 3.15526 13.2958 2.83333 12.4994 2.83333ZM9.49653 12C9.49653 12.8104 9.81291 13.5876 10.3761 14.1606C10.9392 14.7336 11.703 15.0556 12.4994 15.0556C13.2958 15.0556 14.0596 14.7336 14.6227 14.1606C15.1859 13.5876 15.5023 12.8104 15.5023 12V10.4722C15.5023 10.2291 15.5972 9.99595 15.7661 9.82404C15.9351 9.65213 16.1642 9.55556 16.4031 9.55556C16.642 9.55556 16.8712 9.65213 17.0401 9.82404C17.2091 9.99595 17.304 10.2291 17.304 10.4722V12C17.304 13.2966 16.7978 14.5401 15.8968 15.457C14.9957 16.3738 13.7737 16.8889 12.4994 16.8889C11.2251 16.8889 10.0031 16.3738 9.10205 15.457C8.20101 14.5401 7.69482 13.2966 7.69482 12V10.4722C7.69482 10.2291 7.78973 9.99595 7.95867 9.82404C8.12761 9.65213 8.35675 9.55556 8.59567 9.55556C8.8346 9.55556 9.06373 9.65213 9.23268 9.82404C9.40162 9.99595 9.49653 10.2291 9.49653 10.4722V12Z" fill="white"/>
</svg>
