<svg width="24" height="24" viewBox="0 0 24 24" fill="none" xmlns="http://www.w3.org/2000/svg">
<path d="M16.9267 2.5C17.6999 2.5 18.4252 2.64835 19.1026 2.94506C19.7801 3.24177 20.3685 3.65152 20.868 4.17429C21.3675 4.69706 21.7644 5.30814 22.0587 6.00753C22.3529 6.70692 22.5 7.45575 22.5 8.25404C22.5 8.66378 22.4589 9.06999 22.3768 9.47267C22.2947 9.87535 22.1716 10.2639 22.0073 10.6383H17.2551L15.2845 8.51896L12 11.9099L7.40176 7.16258L4.1173 10.6383H1.99267C1.82845 10.2639 1.70528 9.87535 1.62317 9.47267C1.54106 9.06999 1.5 8.66378 1.5 8.25404C1.5 7.45575 1.6437 6.70692 1.93109 6.00753C2.21848 5.30814 2.61535 4.70059 3.1217 4.18489C3.62805 3.66918 4.21994 3.25943 4.89736 2.95566C5.57478 2.65189 6.3001 2.5 7.07331 2.5C7.81916 2.5 8.53079 2.64482 9.20821 2.93447C9.88563 3.22411 10.4912 3.64092 11.0249 4.18489L12 5.20218L12.9751 4.18489C13.502 3.64092 14.1041 3.22411 14.7815 2.93447C15.4589 2.64482 16.174 2.5 16.9267 2.5ZM15.9413 11.9947H21.176L21.0323 12.1642C20.9844 12.2208 20.933 12.2808 20.8783 12.3444L12 21.5L3.1217 12.3444C3.06696 12.2879 3.01564 12.2314 2.96774 12.1748C2.91984 12.1183 2.87195 12.0583 2.82405 11.9947H5.43109L7.40176 10.0449L12 14.7922L15.2845 11.4013L15.9413 11.9947Z" fill="#FEFEFE"/>
</svg>
