<svg width="28" height="28" viewBox="0 0 28 28" fill="none" xmlns="http://www.w3.org/2000/svg">
<path d="M11.0109 15.086C11.0109 16.2871 10.0381 17.2599 8.837 17.2599C7.63591 17.2599 6.66309 16.2871 6.66309 15.086C6.66309 13.8849 7.63591 12.9121 8.837 12.9121C10.0381 12.9121 11.0109 13.8849 11.0109 15.086Z" fill="#FEFEFE"/>
<path fill-rule="evenodd" clip-rule="evenodd" d="M8.837 16.173C9.12528 16.173 9.40175 16.0585 9.60559 15.8546C9.80944 15.6508 9.92396 15.3743 9.92396 15.086C9.92396 14.7977 9.80944 14.5213 9.60559 14.3174C9.40175 14.1136 9.12528 13.9991 8.837 13.9991C8.54872 13.9991 8.27225 14.1136 8.06841 14.3174C7.86456 14.5213 7.75004 14.7977 7.75004 15.086C7.75004 15.3743 7.86456 15.6508 8.06841 15.8546C8.27225 16.0585 8.54872 16.173 8.837 16.173ZM8.837 17.2599C10.0381 17.2599 11.0109 16.2871 11.0109 15.086C11.0109 13.8849 10.0381 12.9121 8.837 12.9121C7.63591 12.9121 6.66309 13.8849 6.66309 15.086C6.66309 16.2871 7.63591 17.2599 8.837 17.2599Z" fill="#FEFEFE"/>
<path d="M4.21741 20.8178C4.21741 19.1754 7.29513 18.3477 8.83697 18.3477C10.3788 18.3477 13.4565 19.1754 13.4565 20.8178V23.7824H4.21741V20.8178Z" fill="#FEFEFE"/>
<path fill-rule="evenodd" clip-rule="evenodd" d="M5.48589 20.5123C5.31415 20.6819 5.30436 20.7792 5.30436 20.8183V22.6955H12.3696V20.8178C12.3696 20.7797 12.3598 20.6819 12.1881 20.5123C12.0065 20.3335 11.7071 20.1417 11.2968 19.9661C10.4707 19.6123 9.46197 19.4346 8.83697 19.4346C8.21197 19.4346 7.20273 19.6123 6.37719 19.9661C5.96686 20.1417 5.66741 20.3335 5.48589 20.5123ZM8.83697 18.3477C7.29513 18.3477 4.21741 19.1754 4.21741 20.8178V23.7824H13.4565V20.8178C13.4565 19.1754 10.3788 18.3477 8.83697 18.3477Z" fill="#FEFEFE"/>
<path d="M21.3371 15.086C21.3371 16.2871 20.3643 17.2599 19.1632 17.2599C17.9621 17.2599 16.9893 16.2871 16.9893 15.086C16.9893 13.8849 17.9621 12.9121 19.1632 12.9121C20.3643 12.9121 21.3371 13.8849 21.3371 15.086Z" fill="#FEFEFE"/>
<path fill-rule="evenodd" clip-rule="evenodd" d="M19.1632 16.173C19.4514 16.173 19.7279 16.0585 19.9318 15.8546C20.1356 15.6508 20.2501 15.3743 20.2501 15.086C20.2501 14.7977 20.1356 14.5213 19.9318 14.3174C19.7279 14.1136 19.4514 13.9991 19.1632 13.9991C18.8749 13.9991 18.5984 14.1136 18.3946 14.3174C18.1907 14.5213 18.0762 14.7977 18.0762 15.086C18.0762 15.3743 18.1907 15.6508 18.3946 15.8546C18.5984 16.0585 18.8749 16.173 19.1632 16.173ZM19.1632 17.2599C20.3643 17.2599 21.3371 16.2871 21.3371 15.086C21.3371 13.8849 20.3643 12.9121 19.1632 12.9121C17.9621 12.9121 16.9893 13.8849 16.9893 15.086C16.9893 16.2871 17.9621 17.2599 19.1632 17.2599Z" fill="#FEFEFE"/>
<path d="M16.174 13.9991C16.174 15.2002 15.2012 16.173 14.0001 16.173C12.799 16.173 11.8262 15.2002 11.8262 13.9991C11.8262 12.798 12.799 11.8252 14.0001 11.8252C15.2012 11.8252 16.174 12.798 16.174 13.9991Z" fill="#FEFEFE"/>
<path fill-rule="evenodd" clip-rule="evenodd" d="M14.0001 15.0861C14.2884 15.0861 14.5648 14.9715 14.7687 14.7677C14.9725 14.5639 15.087 14.2874 15.087 13.9991C15.087 13.7108 14.9725 13.4344 14.7687 13.2305C14.5648 13.0267 14.2884 12.9122 14.0001 12.9122C13.7118 12.9122 13.4353 13.0267 13.2315 13.2305C13.0276 13.4344 12.9131 13.7108 12.9131 13.9991C12.9131 14.2874 13.0276 14.5639 13.2315 14.7677C13.4353 14.9715 13.7118 15.0861 14.0001 15.0861ZM14.0001 16.173C15.2012 16.173 16.174 15.2002 16.174 13.9991C16.174 12.798 15.2012 11.8252 14.0001 11.8252C12.799 11.8252 11.8262 12.798 11.8262 13.9991C11.8262 15.2002 12.799 16.173 14.0001 16.173Z" fill="#FEFEFE"/>
<path d="M13.4566 7.93038C13.4566 7.23376 13.1798 6.56566 12.6872 6.07308C12.1946 5.58049 11.5265 5.30375 10.8299 5.30375H9.10764C8.39499 5.30261 7.71044 5.58157 7.20158 6.08049C6.69272 6.57942 6.40031 7.25833 6.38741 7.97086C6.3745 8.68339 6.64213 9.37245 7.13259 9.88948C7.62305 10.4065 8.29705 10.7101 9.00927 10.7347L9.10873 10.7385V11.8255C9.10873 11.8255 13.4566 11.1913 13.4566 7.93038ZM15.087 7.06245C15.087 6.30774 15.3868 5.58393 15.9205 5.05027C16.4541 4.51661 17.1779 4.2168 17.9326 4.2168H21.0652C21.7859 4.2168 22.4771 4.50309 22.9867 5.0127C23.4963 5.52231 23.7826 6.21349 23.7826 6.93419C23.7826 7.65489 23.4963 8.34606 22.9867 8.85567C22.4771 9.36528 21.7859 9.65158 21.0652 9.65158H19.9783V11.282C19.9783 11.282 15.087 10.5951 15.087 7.06245ZM14.5435 20.8173C14.5435 19.1749 17.6212 18.3472 19.1631 18.3472C20.7049 18.3472 23.7826 19.1749 23.7826 20.8173V23.782H14.5435V20.8173Z" fill="#FEFEFE"/>
<path fill-rule="evenodd" clip-rule="evenodd" d="M15.8121 20.5124C15.6403 20.6819 15.6306 20.7792 15.6306 20.8184V22.6955H22.6958V20.8178C22.6958 20.7798 22.686 20.6819 22.5142 20.5124C22.3327 20.3336 22.0333 20.1417 21.6229 19.9662C20.7969 19.6124 19.7882 19.4347 19.1632 19.4347C18.5382 19.4347 17.5289 19.6124 16.7034 19.9662C16.2931 20.1417 15.9936 20.3336 15.8121 20.5124ZM19.1632 18.3477C17.6213 18.3477 14.5436 19.1754 14.5436 20.8178V23.7825H23.7827V20.8178C23.7827 19.1754 20.705 18.3477 19.1632 18.3477ZM14.0001 19.9781V19.7309C14.0001 18.8194 12.9963 18.1586 11.8235 17.751C12.5041 17.4293 13.2473 17.262 14.0001 17.2607C14.7529 17.262 15.4961 17.4293 16.1767 17.751C15.0045 18.1586 14.0001 18.8194 14.0001 19.7309V19.9781Z" fill="#FEFEFE"/>
<path fill-rule="evenodd" clip-rule="evenodd" d="M14.0001 19.9781V19.7309C14.0001 19.2455 14.2849 18.8309 14.7284 18.4879C14.7538 18.4685 14.7795 18.4495 14.8056 18.4309C15.1838 18.1559 15.6642 17.9292 16.1767 17.7515C15.6677 17.5115 15.1228 17.3564 14.5637 17.2923C14.1893 17.2502 13.8114 17.2502 13.4371 17.2923C12.8778 17.3561 12.3327 17.5111 11.8235 17.751C12.336 17.9292 12.8164 18.1559 13.1952 18.4303C13.2213 18.4493 13.2463 18.4684 13.2713 18.4879C13.7153 18.8303 14.0001 19.2455 14.0001 19.7309V19.9781Z" fill="#FEFEFE"/>
</svg>
