<svg width="24" height="24" viewBox="0 0 24 24" fill="none" xmlns="http://www.w3.org/2000/svg">
<path d="M7.89563 4.12637C8.04688 3.68695 7.82344 3.20535 7.39375 3.05068C6.96406 2.896 6.49312 3.1245 6.34188 3.56392L5.97406 4.62555L5.63375 3.57798C5.48938 3.13505 5.02188 2.896 4.58875 3.04365C4.15563 3.19129 3.92188 3.66938 4.06625 4.11231L4.35156 4.99114L3.40969 4.28808C3.04187 4.01388 2.52625 4.09825 2.25812 4.47439C1.99 4.85053 2.0725 5.37783 2.44031 5.65203L3.41313 6.37619H2.65C1.73906 6.37619 1 7.13199 1 8.06355V19.3126C1 20.2442 1.73906 21 2.65 21H7.89563C7.71 20.6696 7.6 20.2864 7.6 19.8751V12.0007C7.6 10.9496 8.30469 10.0673 9.25688 9.82122C9.31875 8.73147 9.84469 7.77529 10.6353 7.14605C10.3397 6.68202 9.83094 6.37619 9.25 6.37619H8.48688L9.45969 5.65203C9.8275 5.37783 9.91 4.85053 9.64188 4.47439C9.37375 4.09825 8.85812 4.01388 8.49031 4.28808L7.61719 4.93841L7.89563 4.12637ZM13.4953 9.52242L14.5128 10.8758H12.825C12.3678 10.8758 12 10.4997 12 10.0321C12 9.57163 12.3713 9.18846 12.8319 9.18846C13.0931 9.18846 13.3372 9.3115 13.4953 9.52242ZM10.35 10.0321C10.35 10.3274 10.3981 10.6122 10.4909 10.8758H10.35C9.43906 10.8758 8.7 11.6316 8.7 12.5632V15.3755H15.3V12.0007H16.4V15.3755H23V12.5632C23 11.6316 22.2609 10.8758 21.35 10.8758H21.2091C21.3019 10.6122 21.35 10.3274 21.35 10.0321C21.35 8.62952 20.2328 7.5011 18.8681 7.5011C18.0981 7.5011 17.3694 7.86669 16.8984 8.49242L15.85 9.8845L14.8016 8.49242C14.3306 7.86669 13.5984 7.5011 12.8319 7.5011C11.4672 7.5011 10.35 8.62952 10.35 10.0321ZM8.7 19.3126C8.7 20.2442 9.43906 21 10.35 21H15.3V16.5004H8.7V19.3126ZM16.4 21H21.35C22.2609 21 23 20.2442 23 19.3126V16.5004H16.4V21ZM19.7 10.0321C19.7 10.4997 19.3322 10.8758 18.875 10.8758H17.1872L18.2047 9.52242C18.3628 9.31501 18.6069 9.18846 18.8681 9.18846C19.3288 9.18846 19.7 9.57163 19.7 10.0321Z" fill="#FEFEFE"/>
</svg>
